<?xml version="1.0" encoding="UTF-8" standalone="no"?>
<svg
   xmlns:dc="http://purl.org/dc/elements/1.1/"
   xmlns:cc="http://creativecommons.org/ns#"
   xmlns:rdf="http://www.w3.org/1999/02/22-rdf-syntax-ns#"
   xmlns:svg="http://www.w3.org/2000/svg"
   xmlns="http://www.w3.org/2000/svg"
   xmlns:xlink="http://www.w3.org/1999/xlink"
   xmlns:sodipodi="http://sodipodi.sourceforge.net/DTD/sodipodi-0.dtd"
   xmlns:inkscape="http://www.inkscape.org/namespaces/inkscape"
   inkscape:version="1.0 (4035a4fb49, 2020-05-01)"
   sodipodi:docname="telechargement.svg"
   viewBox="0 0 66.666664 72"
   height="72"
   width="66.666664"
   id="svg6883"
   version="1.1">
  <metadata
     id="metadata6889">
    <rdf:RDF>
      <cc:Work
         rdf:about="">
        <dc:format>image/svg+xml</dc:format>
        <dc:type
           rdf:resource="http://purl.org/dc/dcmitype/StillImage" />
        <dc:title></dc:title>
      </cc:Work>
    </rdf:RDF>
  </metadata>
  <defs
     id="defs6887">
    <linearGradient
       id="linearGradient7494"
       inkscape:collect="always">
      <stop
         id="stop7490"
         offset="0"
         style="stop-color:#ee5962;stop-opacity:1;" />
      <stop
         id="stop7492"
         offset="1"
         style="stop-color:#fffe00;stop-opacity:0" />
    </linearGradient>
    <linearGradient
       gradientUnits="userSpaceOnUse"
       y2="36.542217"
       x2="542.50659"
       y1="37.54222"
       x1="0.18181877"
       id="linearGradient7496"
       xlink:href="#linearGradient7494"
       inkscape:collect="always" />
  </defs>
  <sodipodi:namedview
     inkscape:current-layer="g6891"
     inkscape:window-maximized="1"
     inkscape:window-y="-12"
     inkscape:window-x="-12"
     inkscape:cy="35.935838"
     inkscape:cx="79.014591"
     inkscape:zoom="14"
     showgrid="false"
     id="namedview6885"
     inkscape:window-height="2050"
     inkscape:window-width="3840"
     inkscape:pageshadow="2"
     inkscape:pageopacity="0"
     guidetolerance="10"
     gridtolerance="10"
     objecttolerance="10"
     borderopacity="1"
     bordercolor="#666666"
     pagecolor="#ffffff" />
  <g
     id="g6891"
     inkscape:label="Image"
     inkscape:groupmode="layer">
    <path
       sodipodi:nodetypes="sssscssssscsssscsscsssssssssssss"
       id="path6901"
       d="m 1.7428571,70.328571 c -1.75588296,-1.755884 -2.05552796,-4.994813 -0.77162,-8.340625 0.968,-2.522566 9.5845819,-6.442034 12.0675519,-5.489228 1.328598,0.50983 1.784337,-3.942986 2.070487,-20.229774 l 0.366914,-20.883497 6.666666,-2.467278 c 3.666666,-1.357002 8.000997,-2.743692 9.631845,-3.0815325 1.630848,-0.3378406 4.630848,-1.2539774 6.666666,-2.0358596 5.181407,-1.9899858 24.938314,-5.776518 25.879099,-4.4291028 1.421361,2.0357091 1.722703,19.5379849 1.584293,28.5170609 l -0.142857,26.65993 -4.388014,4.594714 c -7.272411,7.614982 -18.853766,3.432189 -16.693401,-5.175388 0.920133,-3.666107 6.688629,-7.706087 11.003156,-7.706087 3.089146,0 3.125878,-0.172025 3.125878,-14.63916 v -14.63916 l -10.519653,0.695592 c -5.785809,0.382576 -14.185809,1.724263 -18.666666,2.981527 l -8.147013,2.285936 v 19.772359 c 0,18.623192 -0.169598,19.930365 -2.918081,22.490966 C 15.233404,72.307396 4.4397151,73.02543 1.7428571,70.328571 Z M 34.809522,19.366303 c 4.766667,-1.187089 12.116666,-2.788745 16.333333,-3.559235 6.076804,-1.110384 7.666666,-1.914149 7.666666,-3.875934 0,-2.7731489 0.171702,-3.6023582 -4.297203,-2.4662466 -7.621761,1.9376496 -6.781822,1.4715226 -17.83196,4.5055516 -3.712446,1.019324 -5.260644,2.002245 -7.771743,2.654852 -2.661752,0.69176 -3.167668,0.63906 -4.370836,0.854106 -3.381519,0.604388 -3.06159,1.369238 -3.06159,3.271349 0,1.42714 0.788458,1.922078 2.333334,1.464705 1.283333,-0.379941 6.233333,-1.662059 10.999999,-2.849148 z"
       style="fill:url(#linearGradient7496);fill-opacity:1;stroke-width:1.33333" />
  </g>
</svg>
